<?xml version="1.0" encoding="UTF-8"?>
<svg width="18px" height="18px" viewBox="0 0 24 24" xmlns="http://www.w3.org/2000/svg" xmlns:xlink="http://www.w3.org/1999/xlink" fill="#111111">
  <title>TikTok Icon</title>
  <path d="M16.982 1a1 1 0 0 0-1 1v4.262a6.051 6.051 0 0 0 3.476 1.095h.276v2.518h-.316c-2.244 0-4.229-1.203-5.294-3.012v7.65a4.93 4.93 0 1 1-4.93-4.93c.229 0 .452.016.673.047v2.663a2.258 2.258 0 1 0 1.146 1.944v-10.86h2.52c.247 0 .47-.11.64-.286a.995.995 0 0 0 .357-.728V2a1 1 0 0 0-1-1h-3.38z"></path>
</svg>
